<?xml version="1.0" encoding="utf-8"?>
<!-- Generator: Adobe Illustrator 25.2.1, SVG Export Plug-In . SVG Version: 6.00 Build 0)  -->
<svg version="1.1" id="Layer_1" xmlns="http://www.w3.org/2000/svg" xmlns:xlink="http://www.w3.org/1999/xlink" x="0px" y="0px"
	 viewBox="0 0 900 756" style="enable-background:new 0 0 900 756;" xml:space="preserve">
<style type="text/css">
	.st0{fill:#24325B;}
</style>
<g>
	<path class="st0" d="M738.7,585.5c5.1,0,10.1-1.8,14.1-5.3c6.3-5.5,8.9-14,6.6-22.1c-8.5-30.4-8.4-74.9-7.9-94.3
		c87.1-38,143.3-123.7,143.3-218.8c0-131.6-107.1-238.7-238.7-238.7H522.2c-131.6,0-238.7,107.1-238.7,238.7
		c0,9.6,7.8,17.4,17.4,17.4c9.6,0,17.4-7.8,17.4-17.4c0-112.4,91.4-203.9,203.9-203.9h133.9c112.4,0,203.9,91.4,203.9,203.9
		c0,81.7-48.5,155.3-123.6,187.5c-11.5,4.9-19.2,16.2-19.6,28.6c-0.6,18.8-0.6,50.3,3.6,79.5c-28.7-14.9-72.6-41.5-117.5-83.1
		c-6-5.6-13.8-8.6-21.9-8.6h-58.8c-9.6,0-17.4,7.8-17.4,17.4s7.8,17.4,17.4,17.4H580c63.9,59,126.1,89.6,150,100.1
		C732.8,584.9,735.7,585.5,738.7,585.5z"/>
</g>
<g>
	<path class="st0" d="M199.2,587.9"/>
</g>
<g>
	<path class="st0" d="M168.1,715.3"/>
</g>
<g>
	<g>
		<path class="st0" d="M289.7,514.4c0-5.8,2.9-11.4,8.1-14.8l89.8-56.4c2.6-3.3,5.1-7.1,6.9-10.4c2.4-4.4,1.8-9.8-1.3-13.7
			c0,0,0,0,0-0.1l-0.1-0.1c-2.8-2.5-13.1-10.8-15.1-12.3c-7.9-5.5-9.8-16.3-4.3-24.2c5.5-7.9,16.4-9.8,24.3-4.3
			c0.2,0.1,18.1,13.7,22,18.6l0.5,0.7c3.3,4.1,9.4,11.8,11.3,22.4c3.6,20-13.9,41.9-19.3,48.2l-1.7,1.9l-93.5,58.7
			c-7.9,5-18.7,3.6-24.1-4C290.7,521.5,289.7,517.9,289.7,514.4z M392.7,418.5l-0.2-0.3C392.6,418.3,392.6,418.4,392.7,418.5z"/>
	</g>
	<g>
		<path class="st0" d="M98.1,734.7c0-5.8,2.9-11.4,8.1-14.7c9.4-5.9,57.7-35.7,81.5-38.1c17.9-1.8,31.5-3.4,34.9-3.7
			c15.2-3.2,33.3-7.3,37.4-8.7c0.5-0.3,1.2-0.6,2-0.9c6.9-3.2,25.4-11.8,38-20.9c15-10.8,107.1-70.1,121.8-79.6
			c3.2-3.7,6.4-8.6,7.2-11c-0.6-2.2-1.1-4.1-1.6-5.7c-1.3-5-1.3-5-3.7-7.3c-1.1-1-3.7-1.7-5.6-1.8l-6.6,1.2L363.1,573
			c-8.2,5-18.9,2.4-23.9-5.8l0,0c-5-8.2-2.4-18.9,5.8-23.9l51-31.1c11.4-7.4,23.3-19.1,24.4-24.1c-2.7-10.7-4.5-11.8-6.5-13.1
			c-1.6-0.5-5.4-0.9-8.2-1l-1.4,0l-0.8-0.2c-1-0.1-2.4,0-3.1,0.2c-5.6,3.5-52.5,34.4-83.4,54.8c-6.3,4.2-14.7,4.2-20.6-0.6
			c-9.7-7.9-8.4-22,1.1-28.3c8-5.3,78.6-51.9,84.8-55.7c9.7-6,20.8-5.5,25.1-5c6.4,0.2,17.1,1.3,24.5,5.9l0.5,0.3
			c7.9,5,16.1,11.8,21.9,34.7c3.3,13-2.2,25.3-10.2,35.5c1.3,0.9,2.6,2,3.8,3.2c8.8,8.4,11,14.8,13.3,23.5c0.4,1.7,0.9,3.6,1.6,5.8
			c6,19.7-11.6,39.7-17.1,45.4l-1.4,1.4l-1.7,1.1c-1.1,0.7-107,68.9-122.2,79.8c-15.3,11-35.9,20.6-43.6,24.2
			c-0.9,0.4-1.6,0.8-2.1,1c-1.6,0.8-6.6,3.2-45.7,11.3l-1.5,0.3c-0.2,0-15.3,1.8-36.1,3.9c-10.3,1-42,17.6-65.8,32.5
			c-7.1,4.5-16.7,3.9-22.5-2.2C99.7,743.2,98.1,738.9,98.1,734.7z M259.7,669.6c-0.1,0-0.1,0-0.1,0.1
			C259.6,669.6,259.6,669.6,259.7,669.6z M413.1,474.5L413.1,474.5C413.1,474.5,413.1,474.5,413.1,474.5z M414.2,475.1L414.2,475.1
			L414.2,475.1z M429.2,556.3L429.2,556.3L429.2,556.3z"/>
	</g>
	<g>
		<path class="st0" d="M4.6,593.6c0-5.5,2.6-11,7.6-14.4l36.1-24.7c0.7-0.5,1.3-0.9,2-1.3c4.3-2.6,15.4-11.2,14.5-19.4
			c-3.2-27.1,12.2-54.7,14-57.7c1-1.6,22.6-38.4,41.9-56.8c10-9.5,20-18.6,27.3-25.3c3.9-3.5,7.9-7.2,9.8-9
			c4.8-7.8,26.3-46.9,28.8-52.8c0.5-1.3,0.8-2.1,1.2-3.2c1.4-4.3,2.9-8.3,8.1-13.7c7.5-8,17.6-12.2,28.3-11.9
			c5.7,0.2,12.2,1.6,19.3,4.3c8.7,3.3,22.5,17,26.9,25.2c1.2,2.3,2.1,5,2.9,8.9c1.5,7.6,1.9,15.4,1.1,23.3
			c134.4-89.1,140.5-91,143.4-91.9c26.5-8.3,57.7-4.1,67.8,24.3c9.8,27.6-4.4,48.5-14.4,56.5l-0.7,0.6l-186.6,121
			c-8.1,5.2-18.8,2.9-24.1-5.1c-5.2-8.1-2.9-18.8,5.1-24.1l184.7-119.7c2.1-2.2,6.5-8,3.1-17.5c-0.6-1.7-1.5-4.2-8.5-4.7
			c-5.5-0.4-11.5,0.8-15,1.7c-11.7,6.4-89.5,57.4-137,89l-74.4,51l20.6-77.6c1.7-6.5,2-13.3,0.7-19.6c0-0.1,0-0.2-0.1-0.3
			c-1.9-2.5-6.4-6.9-8.8-8.6c-3.4-1.2-5.9-1.7-7.2-1.7c-0.7,0-1.3,0.3-1.9,1c-0.1,0.1-0.1,0.1-0.1,0.2c0,0.1-0.1,0.2-0.1,0.3
			c-0.4,1.4-1.1,3.5-2.3,6.3c-1.3,3-29.6,56.8-34.6,62.2c-1.8,1.9-5.1,4.9-12.5,11.7c-7.2,6.6-17.1,15.5-26.8,24.8
			c-13.1,12.4-30.3,39.6-35.8,49.1c-3.1,5.5-11.1,22.9-9.5,36.2C102,553.6,85,573,68.1,583.1l-0.2,0.2l-36,24.7
			c-7.9,5.4-18.8,3.4-24.2-4.5C5.6,600.4,4.6,597,4.6,593.6z M220.5,339.8L220.5,339.8C220.5,339.8,220.5,339.8,220.5,339.8z
			 M238.7,347.6L238.7,347.6C238.7,347.6,238.7,347.6,238.7,347.6z"/>
	</g>
</g>
</svg>
