<?xml version="1.0" encoding="utf-8"?>
<!-- Generator: Adobe Illustrator 25.2.1, SVG Export Plug-In . SVG Version: 6.00 Build 0)  -->
<svg version="1.1" id="Layer_1" xmlns="http://www.w3.org/2000/svg" xmlns:xlink="http://www.w3.org/1999/xlink" x="0px" y="0px"
	 viewBox="0 0 900 792.4" style="enable-background:new 0 0 900 792.4;" xml:space="preserve">
<style type="text/css">
	.st0{fill:#24325B;}
</style>
<g>
	<path class="st0" d="M816.4,317.3h-27.8V83.1c0-43-35-78.1-78.1-78.1H84.4c-43,0-78.1,35-78.1,78.1v416.3c0,43,35,78.1,78.1,78.1
		h26v130.1c0,10.5,6.3,20,16.1,24c9.7,4,20.9,1.8,28.4-5.6l148.5-148.5h121.1v26c0,43,35,78.1,78.1,78.1h145.3l96.5,96.5
		c7.5,7.5,18.7,9.7,28.4,5.6c9.7-4,16.1-13.5,16.1-24v-78.1h27.8c43,0,78.1-35,78.1-78.1V395.4C894.5,352.3,859.5,317.3,816.4,317.3
		z M292.5,525.5c-6.9,0-13.5,2.7-18.4,7.6L162.4,644.8v-93.3c0-14.4-11.7-26-26-26h-52c-14.3,0-26-11.7-26-26V83.1
		c0-14.3,11.7-26,26-26h626.2c14.3,0,26,11.7,26,26v234.2H502.4c-43,0-78.1,35-78.1,78.1v130.1H292.5z M842.4,603.5
		c0,14.3-11.7,26-26,26h-53.8c-14.4,0-26,11.7-26,26v41.3L677,637.2c-4.9-4.9-11.5-7.6-18.4-7.6H502.4c-14.3,0-26-11.7-26-26V395.4
		c0-14.3,11.7-26,26-26h314c14.3,0,26,11.7,26,26V603.5z"/>
	<path class="st0" d="M692.2,455l-59.7,59.7l-20.6-20.6c-10.2-10.2-26.6-10.2-36.8,0c-10.2,10.2-10.2,26.6,0,36.8l39,39
		c5.1,5.1,11.7,7.6,18.4,7.6c6.7,0,13.3-2.5,18.4-7.6l78.1-78.1c10.2-10.2,10.2-26.6,0-36.8C718.8,444.9,702.4,444.9,692.2,455
		L692.2,455z"/>
	<path class="st0" d="M346.3,369.4H188.5c-14.4,0-26,11.7-26,26s11.7,26,26,26h157.9c14.4,0,26-11.7,26-26S360.7,369.4,346.3,369.4z
		"/>
	<path class="st0" d="M398.4,265.3H188.5c-14.4,0-26,11.7-26,26c0,14.4,11.7,26,26,26h209.9c14.4,0,26-11.7,26-26
		C424.4,276.9,412.7,265.3,398.4,265.3z"/>
	<path class="st0" d="M188.5,213.2h418.1c14.4,0,26-11.7,26-26s-11.7-26-26-26H188.5c-14.4,0-26,11.7-26,26S174.1,213.2,188.5,213.2
		z"/>
</g>
</svg>
