<?xml version="1.0" encoding="utf-8"?>
<!-- Generator: Adobe Illustrator 25.2.1, SVG Export Plug-In . SVG Version: 6.00 Build 0)  -->
<svg version="1.1" id="Layer_1" xmlns="http://www.w3.org/2000/svg" xmlns:xlink="http://www.w3.org/1999/xlink" x="0px" y="0px"
	 viewBox="0 0 500 179.6" style="enable-background:new 0 0 500 179.6;" xml:space="preserve">
<style type="text/css">
	.st0{fill:#3FD1D3;}
	.st1{fill:#24325B;}
</style>
<g>
	<g>
		<path class="st0" d="M20.3,156.8v1.4H7.9v9.1h10.3v1.3H7.9v9.4h12.4v1.4H6.1v-22.5H20.3z"/>
		<path class="st0" d="M37.2,159.5c-0.1,0.2-0.2,0.3-0.4,0.3c-0.1,0-0.3-0.1-0.6-0.3s-0.5-0.4-0.9-0.7c-0.4-0.2-0.9-0.5-1.5-0.7
			c-0.6-0.2-1.3-0.3-2.2-0.3c-0.9,0-1.6,0.1-2.3,0.3c-0.7,0.2-1.2,0.6-1.6,1c-0.4,0.4-0.8,0.9-1,1.4c-0.2,0.5-0.3,1.1-0.3,1.7
			c0,0.8,0.2,1.4,0.5,1.9c0.3,0.5,0.8,0.9,1.3,1.3c0.6,0.3,1.2,0.6,1.9,0.9c0.7,0.2,1.4,0.5,2.2,0.7c0.7,0.2,1.5,0.5,2.2,0.8
			c0.7,0.3,1.3,0.6,1.9,1.1c0.6,0.4,1,0.9,1.3,1.6c0.3,0.6,0.5,1.4,0.5,2.3c0,0.9-0.2,1.8-0.5,2.7c-0.3,0.8-0.8,1.6-1.5,2.2
			c-0.6,0.6-1.4,1.1-2.4,1.5c-0.9,0.4-2,0.5-3.2,0.5c-1.6,0-2.9-0.3-4-0.8c-1.1-0.5-2.1-1.2-2.9-2.2l0.5-0.7
			c0.1-0.2,0.3-0.2,0.5-0.2c0.1,0,0.2,0.1,0.4,0.2c0.2,0.1,0.3,0.3,0.6,0.5c0.2,0.2,0.5,0.4,0.8,0.6c0.3,0.2,0.7,0.4,1.1,0.6
			c0.4,0.2,0.9,0.3,1.4,0.5s1.1,0.2,1.8,0.2c0.9,0,1.8-0.1,2.5-0.4c0.7-0.3,1.4-0.6,1.9-1.1c0.5-0.5,0.9-1,1.2-1.7
			c0.3-0.6,0.4-1.3,0.4-2.1c0-0.8-0.2-1.5-0.5-2c-0.3-0.5-0.8-0.9-1.3-1.3c-0.6-0.3-1.2-0.6-1.9-0.9c-0.7-0.2-1.4-0.5-2.2-0.7
			c-0.7-0.2-1.5-0.5-2.2-0.7c-0.7-0.3-1.3-0.6-1.9-1.1c-0.6-0.4-1-1-1.3-1.6c-0.3-0.6-0.5-1.4-0.5-2.4c0-0.8,0.2-1.5,0.5-2.2
			c0.3-0.7,0.7-1.3,1.3-1.9c0.6-0.5,1.3-1,2.1-1.3c0.9-0.3,1.8-0.5,2.9-0.5c1.2,0,2.3,0.2,3.3,0.6c1,0.4,1.9,0.9,2.7,1.7L37.2,159.5
			z"/>
		<path class="st0" d="M58.6,156.8v1.4h-8.3v21.1h-1.7v-21.1h-8.3v-1.4H58.6z"/>
		<path class="st0" d="M64.9,169.1v10.2h-1.7v-22.5h6c2.7,0,4.8,0.5,6.1,1.5c1.3,1,2,2.5,2,4.4c0,0.9-0.2,1.6-0.5,2.4
			c-0.3,0.7-0.8,1.3-1.3,1.9c-0.6,0.5-1.3,1-2.1,1.3c-0.8,0.3-1.7,0.6-2.8,0.7c0.3,0.2,0.5,0.4,0.7,0.6l8.1,9.7h-1.5
			c-0.2,0-0.3,0-0.5-0.1c-0.1-0.1-0.3-0.2-0.4-0.3l-7.5-9.1c-0.2-0.2-0.4-0.4-0.6-0.5c-0.2-0.1-0.6-0.1-1-0.1H64.9z M64.9,167.9H69
			c1,0,2-0.1,2.8-0.4c0.8-0.2,1.5-0.6,2.1-1c0.6-0.4,1-1,1.3-1.6c0.3-0.6,0.4-1.3,0.4-2.1c0-1.6-0.5-2.8-1.6-3.6
			c-1.1-0.8-2.7-1.2-4.8-1.2h-4.3V167.9z"/>
		<path class="st0" d="M101.4,179.3h-1.3c-0.2,0-0.3,0-0.4-0.1c-0.1-0.1-0.2-0.2-0.2-0.3l-2.8-6.5H85.1l-2.8,6.5
			c0,0.1-0.1,0.2-0.2,0.3c-0.1,0.1-0.2,0.1-0.4,0.1h-1.3l9.6-22.5h1.7L101.4,179.3z M85.7,171.1h10.6l-4.8-11.4
			c-0.1-0.2-0.2-0.4-0.2-0.6c-0.1-0.2-0.2-0.5-0.2-0.7c-0.1,0.3-0.2,0.5-0.2,0.7c-0.1,0.2-0.2,0.4-0.2,0.6L85.7,171.1z"/>
		<path class="st0" d="M118.6,156.8v1.4h-8.3v21.1h-1.7v-21.1h-8.3v-1.4H118.6z"/>
		<path class="st0" d="M136.8,156.8v1.4h-12.4v9.1h10.3v1.3h-10.3v9.4h12.4v1.4h-14.1v-22.5H136.8z"/>
		<path class="st0" d="M152.5,178.2c0.8,0,1.5,0,2.2-0.1c0.7-0.1,1.3-0.2,1.9-0.4c0.6-0.2,1.1-0.4,1.6-0.6c0.5-0.2,1-0.5,1.6-0.8
			v-6.1h-4.5c-0.1,0-0.2,0-0.3-0.1c-0.1-0.1-0.1-0.2-0.1-0.3v-0.9h6.5v8c-0.6,0.4-1.2,0.7-1.8,1.1c-0.6,0.3-1.3,0.6-2,0.8
			c-0.7,0.2-1.5,0.4-2.3,0.5c-0.8,0.1-1.7,0.2-2.7,0.2c-1.7,0-3.2-0.3-4.7-0.8c-1.4-0.5-2.6-1.3-3.6-2.3c-1-1-1.8-2.2-2.3-3.6
			c-0.6-1.4-0.8-3-0.8-4.7s0.3-3.3,0.8-4.7c0.6-1.4,1.3-2.6,2.4-3.6c1-1,2.3-1.8,3.7-2.3c1.5-0.5,3.1-0.8,4.9-0.8
			c0.9,0,1.7,0.1,2.5,0.2c0.8,0.1,1.5,0.3,2.1,0.5c0.7,0.2,1.3,0.5,1.8,0.8c0.6,0.3,1.1,0.7,1.6,1.2l-0.5,0.7
			c-0.1,0.2-0.2,0.2-0.4,0.2c-0.1,0-0.2,0-0.3-0.1c-0.2-0.1-0.4-0.2-0.7-0.4c-0.3-0.2-0.7-0.5-1.3-0.7c-0.5-0.3-1.2-0.5-2-0.7
			c-0.8-0.2-1.8-0.3-2.9-0.3c-1.5,0-2.9,0.2-4.1,0.7c-1.2,0.5-2.3,1.1-3.2,2c-0.9,0.9-1.5,1.9-2,3.2c-0.5,1.3-0.7,2.7-0.7,4.2
			c0,1.6,0.2,3,0.7,4.3c0.5,1.3,1.1,2.3,2,3.2c0.9,0.9,1.9,1.5,3.1,2C149.7,178,151,178.2,152.5,178.2z"/>
		<path class="st0" d="M169.6,179.3h-1.7v-22.5h1.7V179.3z"/>
		<path class="st0" d="M195,179.3h-1.3c-0.2,0-0.3,0-0.4-0.1c-0.1-0.1-0.2-0.2-0.2-0.3l-2.8-6.5h-11.6l-2.8,6.5
			c0,0.1-0.1,0.2-0.2,0.3c-0.1,0.1-0.2,0.1-0.4,0.1H174l9.6-22.5h1.7L195,179.3z M179.2,171.1h10.6l-4.8-11.4
			c-0.1-0.2-0.2-0.4-0.2-0.6c-0.1-0.2-0.2-0.5-0.2-0.7c-0.1,0.3-0.2,0.5-0.2,0.7c-0.1,0.2-0.2,0.4-0.2,0.6L179.2,171.1z"/>
		<path class="st0" d="M207.3,170.2v9.1h-1.7v-22.5h6.1c2.8,0,4.8,0.6,6.3,1.7c1.4,1.2,2.1,2.8,2.1,5c0,1-0.2,1.9-0.6,2.7
			c-0.4,0.8-0.9,1.5-1.7,2.1c-0.7,0.6-1.6,1.1-2.6,1.4c-1,0.3-2.2,0.5-3.5,0.5H207.3z M207.3,168.9h4.4c1,0,2-0.1,2.8-0.4
			c0.8-0.3,1.5-0.7,2.1-1.1c0.6-0.5,1-1.1,1.3-1.7c0.3-0.7,0.5-1.4,0.5-2.2c0-1.7-0.6-3.1-1.7-4c-1.1-0.9-2.8-1.4-5-1.4h-4.4V168.9z
			"/>
		<path class="st0" d="M240.7,179.3h-1.3c-0.2,0-0.3,0-0.4-0.1c-0.1-0.1-0.2-0.2-0.2-0.3l-2.8-6.5h-11.6l-2.8,6.5
			c0,0.1-0.1,0.2-0.2,0.3c-0.1,0.1-0.2,0.1-0.4,0.1h-1.3l9.6-22.5h1.7L240.7,179.3z M224.9,171.1h10.6l-4.8-11.4
			c-0.1-0.2-0.2-0.4-0.2-0.6c-0.1-0.2-0.2-0.5-0.2-0.7c-0.1,0.3-0.2,0.5-0.2,0.7c-0.1,0.2-0.2,0.4-0.2,0.6L224.9,171.1z"/>
		<path class="st0" d="M246.6,169.1v10.2h-1.7v-22.5h6c2.7,0,4.8,0.5,6.1,1.5c1.3,1,2,2.5,2,4.4c0,0.9-0.2,1.6-0.5,2.4
			c-0.3,0.7-0.8,1.3-1.3,1.9c-0.6,0.5-1.3,1-2.1,1.3c-0.8,0.3-1.7,0.6-2.8,0.7c0.3,0.2,0.5,0.4,0.7,0.6l8.1,9.7h-1.5
			c-0.2,0-0.3,0-0.5-0.1c-0.1-0.1-0.3-0.2-0.4-0.3l-7.5-9.1c-0.2-0.2-0.4-0.4-0.6-0.5c-0.2-0.1-0.6-0.1-1-0.1H246.6z M246.6,167.9
			h4.1c1,0,2-0.1,2.8-0.4c0.8-0.2,1.5-0.6,2.1-1c0.6-0.4,1-1,1.3-1.6c0.3-0.6,0.4-1.3,0.4-2.1c0-1.6-0.5-2.8-1.6-3.6
			c-1.1-0.8-2.7-1.2-4.8-1.2h-4.3V167.9z"/>
		<path class="st0" d="M283.2,179.3h-1.3c-0.2,0-0.3,0-0.4-0.1c-0.1-0.1-0.2-0.2-0.2-0.3l-2.8-6.5h-11.6l-2.8,6.5
			c0,0.1-0.1,0.2-0.2,0.3c-0.1,0.1-0.2,0.1-0.4,0.1h-1.3l9.6-22.5h1.7L283.2,179.3z M267.4,171.1h10.6l-4.8-11.4
			c-0.1-0.2-0.2-0.4-0.2-0.6c-0.1-0.2-0.2-0.5-0.2-0.7c-0.1,0.3-0.2,0.5-0.2,0.7c-0.1,0.2-0.2,0.4-0.2,0.6L267.4,171.1z"/>
		<path class="st0" d="M310.4,175.5c0.1,0,0.2,0,0.3,0.1l0.7,0.7c-0.5,0.5-1,0.9-1.6,1.3c-0.6,0.4-1.2,0.7-1.9,1
			c-0.7,0.3-1.4,0.5-2.2,0.7s-1.7,0.2-2.7,0.2c-1.6,0-3.1-0.3-4.5-0.8c-1.4-0.5-2.5-1.3-3.5-2.3c-1-1-1.7-2.2-2.3-3.6
			c-0.5-1.4-0.8-3-0.8-4.7c0-1.7,0.3-3.3,0.8-4.7c0.6-1.4,1.3-2.6,2.4-3.6c1-1,2.2-1.8,3.6-2.4c1.4-0.6,3-0.8,4.7-0.8
			c0.9,0,1.6,0.1,2.3,0.2c0.7,0.1,1.4,0.3,2,0.5c0.6,0.2,1.2,0.5,1.7,0.9c0.5,0.3,1.1,0.7,1.6,1.2l-0.5,0.7
			c-0.1,0.1-0.2,0.2-0.4,0.2c-0.1,0-0.2-0.1-0.4-0.2c-0.2-0.1-0.4-0.2-0.6-0.4c-0.2-0.2-0.5-0.3-0.9-0.5c-0.3-0.2-0.7-0.4-1.2-0.5
			c-0.5-0.2-1-0.3-1.6-0.4c-0.6-0.1-1.3-0.2-2.1-0.2c-1.4,0-2.7,0.2-3.9,0.7c-1.2,0.5-2.2,1.1-3.1,2c-0.9,0.9-1.5,1.9-2,3.2
			c-0.5,1.2-0.7,2.6-0.7,4.2c0,1.6,0.2,3,0.7,4.3c0.5,1.3,1.1,2.3,2,3.2c0.8,0.9,1.8,1.5,3,2c1.1,0.5,2.4,0.7,3.7,0.7
			c0.8,0,1.6-0.1,2.3-0.2c0.7-0.1,1.3-0.3,1.8-0.5c0.6-0.2,1.1-0.5,1.5-0.8c0.5-0.3,0.9-0.7,1.4-1.1c0.1,0,0.1-0.1,0.2-0.1
			C310.3,175.5,310.4,175.5,310.4,175.5z"/>
		<path class="st0" d="M337.7,168c0,1.7-0.3,3.3-0.8,4.7c-0.5,1.4-1.3,2.6-2.3,3.6c-1,1-2.2,1.8-3.5,2.3c-1.4,0.5-2.9,0.8-4.6,0.8
			c-1.7,0-3.2-0.3-4.5-0.8c-1.4-0.5-2.6-1.3-3.5-2.3c-1-1-1.8-2.2-2.3-3.6c-0.5-1.4-0.8-3-0.8-4.7c0-1.7,0.3-3.3,0.8-4.7
			c0.5-1.4,1.3-2.6,2.3-3.6c1-1,2.2-1.8,3.5-2.3c1.4-0.6,2.9-0.8,4.5-0.8c1.7,0,3.2,0.3,4.6,0.8c1.4,0.5,2.6,1.3,3.5,2.3
			c1,1,1.8,2.2,2.3,3.6C337.5,164.7,337.7,166.3,337.7,168z M336,168c0-1.6-0.2-3-0.7-4.2c-0.5-1.3-1.1-2.3-1.9-3.2
			c-0.8-0.9-1.8-1.5-3-2c-1.2-0.5-2.5-0.7-3.9-0.7c-1.4,0-2.7,0.2-3.8,0.7c-1.2,0.5-2.2,1.1-3,2c-0.8,0.9-1.5,1.9-1.9,3.2
			c-0.5,1.3-0.7,2.7-0.7,4.2c0,1.6,0.2,3,0.7,4.2c0.5,1.2,1.1,2.3,1.9,3.2c0.8,0.9,1.8,1.5,3,2c1.2,0.5,2.4,0.7,3.8,0.7
			c1.4,0,2.7-0.2,3.9-0.7c1.2-0.5,2.2-1.1,3-2c0.8-0.9,1.5-1.9,1.9-3.2C335.8,171,336,169.6,336,168z"/>
		<path class="st0" d="M355,173.7c0.1-0.2,0.1-0.3,0.2-0.5c0.1-0.2,0.2-0.3,0.2-0.5l9.3-15.6c0.1-0.1,0.2-0.2,0.3-0.3
			c0.1,0,0.2,0,0.4,0h1.2v22.5h-1.5v-19.2c0-0.3,0-0.6,0-0.9l-9.3,15.7c-0.2,0.3-0.4,0.4-0.7,0.4h-0.3c-0.3,0-0.5-0.1-0.7-0.4
			l-9.5-15.8c0,0.3,0.1,0.6,0.1,0.9v19.2h-1.5v-22.5h1.2c0.2,0,0.3,0,0.4,0c0.1,0,0.2,0.1,0.3,0.3l9.5,15.7
			C354.8,173,354.9,173.4,355,173.7z"/>
		<path class="st0" d="M382.3,178.1c1.1,0,2.1-0.2,3-0.6c0.9-0.4,1.7-0.9,2.3-1.6c0.6-0.7,1.1-1.5,1.4-2.4c0.3-0.9,0.5-1.9,0.5-2.9
			v-13.9h1.7v13.9c0,1.2-0.2,2.4-0.6,3.5c-0.4,1.1-1,2-1.8,2.8c-0.8,0.8-1.7,1.4-2.8,1.9c-1.1,0.5-2.3,0.7-3.7,0.7
			c-1.4,0-2.6-0.2-3.7-0.7c-1.1-0.5-2-1.1-2.8-1.9c-0.8-0.8-1.4-1.7-1.8-2.8c-0.4-1.1-0.6-2.2-0.6-3.5v-13.9h1.7v13.9
			c0,1.1,0.2,2,0.5,2.9c0.3,0.9,0.8,1.7,1.4,2.4c0.6,0.7,1.4,1.2,2.3,1.6C380.1,178,381.1,178.1,382.3,178.1z"/>
		<path class="st0" d="M399.2,156.8c0.1,0,0.2,0.1,0.3,0.2l15.3,19.5c0-0.3-0.1-0.6-0.1-0.9v-18.9h1.5v22.5h-0.8
			c-0.3,0-0.5-0.1-0.6-0.3l-15.3-19.5c0,0.3,0.1,0.6,0.1,0.9v19H398v-22.5h0.8C399,156.8,399.1,156.8,399.2,156.8z"/>
		<path class="st0" d="M425.5,179.3h-1.7v-22.5h1.7V179.3z"/>
		<path class="st0" d="M450.2,175.5c0.1,0,0.2,0,0.3,0.1l0.7,0.7c-0.5,0.5-1,0.9-1.6,1.3c-0.6,0.4-1.2,0.7-1.9,1
			c-0.7,0.3-1.4,0.5-2.2,0.7s-1.7,0.2-2.7,0.2c-1.6,0-3.1-0.3-4.5-0.8c-1.4-0.5-2.5-1.3-3.5-2.3c-1-1-1.7-2.2-2.3-3.6
			c-0.5-1.4-0.8-3-0.8-4.7c0-1.7,0.3-3.3,0.8-4.7c0.6-1.4,1.3-2.6,2.4-3.6c1-1,2.2-1.8,3.6-2.4c1.4-0.6,3-0.8,4.7-0.8
			c0.9,0,1.6,0.1,2.3,0.2c0.7,0.1,1.4,0.3,2,0.5c0.6,0.2,1.2,0.5,1.7,0.9c0.5,0.3,1.1,0.7,1.6,1.2l-0.5,0.7
			c-0.1,0.1-0.2,0.2-0.4,0.2c-0.1,0-0.2-0.1-0.4-0.2c-0.2-0.1-0.4-0.2-0.6-0.4c-0.2-0.2-0.5-0.3-0.9-0.5c-0.3-0.2-0.7-0.4-1.2-0.5
			c-0.5-0.2-1-0.3-1.6-0.4c-0.6-0.1-1.3-0.2-2.1-0.2c-1.4,0-2.7,0.2-3.9,0.7c-1.2,0.5-2.2,1.1-3.1,2c-0.9,0.9-1.5,1.9-2,3.2
			c-0.5,1.2-0.7,2.6-0.7,4.2c0,1.6,0.2,3,0.7,4.3c0.5,1.3,1.1,2.3,2,3.2c0.8,0.9,1.8,1.5,3,2c1.1,0.5,2.4,0.7,3.7,0.7
			c0.8,0,1.6-0.1,2.3-0.2c0.7-0.1,1.3-0.3,1.8-0.5c0.6-0.2,1.1-0.5,1.5-0.8c0.5-0.3,0.9-0.7,1.4-1.1c0.1,0,0.1-0.1,0.2-0.1
			C450.1,175.5,450.2,175.5,450.2,175.5z"/>
		<path class="st0" d="M474.3,179.3H473c-0.2,0-0.3,0-0.4-0.1c-0.1-0.1-0.2-0.2-0.2-0.3l-2.8-6.5H458l-2.8,6.5
			c0,0.1-0.1,0.2-0.2,0.3c-0.1,0.1-0.2,0.1-0.4,0.1h-1.3l9.6-22.5h1.7L474.3,179.3z M458.5,171.1h10.6l-4.8-11.4
			c-0.1-0.2-0.2-0.4-0.2-0.6c-0.1-0.2-0.2-0.5-0.2-0.7c-0.1,0.3-0.2,0.5-0.2,0.7c-0.1,0.2-0.2,0.4-0.2,0.6L458.5,171.1z"/>
		<path class="st0" d="M480.2,169.1v10.2h-1.7v-22.5h6c2.7,0,4.8,0.5,6.1,1.5c1.3,1,2,2.5,2,4.4c0,0.9-0.2,1.6-0.5,2.4
			c-0.3,0.7-0.8,1.3-1.3,1.9c-0.6,0.5-1.3,1-2.1,1.3c-0.8,0.3-1.7,0.6-2.8,0.7c0.3,0.2,0.5,0.4,0.7,0.6l8.1,9.7h-1.5
			c-0.2,0-0.3,0-0.5-0.1c-0.1-0.1-0.3-0.2-0.4-0.3l-7.5-9.1c-0.2-0.2-0.4-0.4-0.6-0.5c-0.2-0.1-0.6-0.1-1-0.1H480.2z M480.2,167.9
			h4.1c1,0,2-0.1,2.8-0.4c0.8-0.2,1.5-0.6,2.1-1c0.6-0.4,1-1,1.3-1.6c0.3-0.6,0.4-1.3,0.4-2.1c0-1.6-0.5-2.8-1.6-3.6
			c-1.1-0.8-2.7-1.2-4.8-1.2h-4.3V167.9z"/>
	</g>
	<polygon class="st0" points="18.6,46.7 18.6,40.8 4,40.8 4,18.6 40.1,3.3 40.1,22.1 	"/>
	<g>
		<path class="st1" d="M274.2,23.6h29.2v11.7c8.1-8.2,19.1-13.6,34.2-13.6c20.6,0,36.2,15.1,36.2,34.4V128h-30.1V67.2
			c0-15.9-9-19.1-16.9-19.1c-8.8,0-16.7,4.4-23.5,12.6V128h-29.2V23.6z"/>
		<path class="st1" d="M209.2,21.7c-31.4,0-56.8,24.5-56.8,53.9c0,30.2,25.4,54.5,56.8,54.5c30.7,0,56.4-24.3,56.4-54.5
			C265.5,46.2,239.9,21.7,209.2,21.7z M216.5,101.3c-2.2,0.7-4.5,1.1-7.1,1.1c-1.3,0-2.5-0.1-3.7-0.3c-13.8-1.6-24.4-12.8-24.4-26.5
			c0-14.4,12.5-26.4,27.8-26.4c15,0,27.6,12,27.6,26.4C236.7,87.9,228,98.2,216.5,101.3z"/>
		<path class="st1" d="M44.3,75.6c0-29.4,25-53.9,56.6-53.9c23.7,0,41.2,11.7,49.1,29.1l-23,13.2c-4.2-8.6-12.9-17.4-25.9-17.4
			c-18.2,0-26.8,15.1-26.8,28.9c0,14,8.6,29.4,26.8,29.4c13.2,0,22.4-9.9,26.5-18.9l22.8,13.2c-7.7,18.5-25.2,30.6-49.6,30.6
			C69.3,129.9,44.3,105.6,44.3,75.6z"/>
		<path class="st1" d="M439.6,21.7c-31.4,0-56.8,24.5-56.8,53.9c0,30.2,25.4,54.5,56.8,54.5c30.7,0,56.4-24.3,56.4-54.5
			C496,46.2,470.3,21.7,439.6,21.7z M446.9,101.3c-2.2,0.7-4.5,1.1-7.1,1.1c-1.3,0-2.5-0.1-3.7-0.3c-13.8-1.6-24.4-12.8-24.4-26.5
			c0-14.4,12.5-26.4,27.8-26.4c15,0,27.6,12,27.6,26.4C467.1,87.9,458.4,98.2,446.9,101.3z"/>
		<polygon class="st1" points="18.6,56.6 18.6,50.6 6.8,50.6 6.8,128 35.7,128 35.7,37.5 		"/>
	</g>
</g>
</svg>
