<?xml version="1.0" encoding="utf-8"?>
<!-- Generator: Adobe Illustrator 25.2.1, SVG Export Plug-In . SVG Version: 6.00 Build 0)  -->
<svg version="1.1" id="Layer_1" xmlns="http://www.w3.org/2000/svg" xmlns:xlink="http://www.w3.org/1999/xlink" x="0px" y="0px"
	 viewBox="0 0 900 836.1" style="enable-background:new 0 0 900 836.1;" xml:space="preserve">
<style type="text/css">
	.st0{fill:#7B362E;}
</style>
<g>
	<g>
		<path class="st0" d="M407.1,680.2L407.1,680.2c-10.2,0-18.5-8.3-18.5-18.5v-16.3c0-18.4-10.5-36.1-29.5-49.9
			c-20.8-15.1-48.8-23.4-78.8-23.4s-58,8.3-78.8,23.4c-19,13.8-29.5,31.5-29.5,49.9v16.3c0,10.2-8.3,18.5-18.5,18.5h0
			c-10.2,0-18.5-8.3-18.5-18.5v-16.3c0-30.6,15.9-59,44.8-79.9c27.1-19.6,62.8-30.4,100.6-30.4c37.8,0,73.5,10.8,100.6,30.4
			c28.9,20.9,44.8,49.3,44.8,79.9v16.3C425.6,671.9,417.3,680.2,407.1,680.2z"/>
	</g>
	<g>
		<path class="st0" d="M280.2,509c-49.3,0-89.3-40.1-89.3-89.3c0-49.3,40.1-89.3,89.3-89.3c49.3,0,89.3,40.1,89.3,89.3
			C369.5,468.9,329.5,509,280.2,509z M280.2,367.4c-28.8,0-52.2,23.4-52.2,52.2s23.4,52.2,52.2,52.2s52.2-23.4,52.2-52.2
			S309,367.4,280.2,367.4z"/>
	</g>
	<g>
		<path class="st0" d="M548.4,124.1H418.3c-10.2,0-18.5-8.3-18.5-18.5S408,87,418.3,87h130.1c10.2,0,18.5,8.3,18.5,18.5
			S558.6,124.1,548.4,124.1z"/>
	</g>
	<g>
		<path class="st0" d="M632.4,178.8H418.3c-10.2,0-18.5-8.3-18.5-18.5s8.3-18.5,18.5-18.5h214.2c10.2,0,18.5,8.3,18.5,18.5
			S642.7,178.8,632.4,178.8z"/>
	</g>
	<g>
		<path class="st0" d="M632.3,766.9c-10.2,0-18.5-8.3-18.5-18.5s8.3-18.5,18.5-18.5c0.7,0,1.2-0.6,1.2-1.2V382.4c0-1.7-1.4-3-3-3
			H504.3c-10.2,0-18.5-8.3-18.5-18.5s8.3-18.5,18.5-18.5h126.2c22.1,0,40.1,18,40.1,40.1v346.1C670.7,749.7,653.5,766.9,632.3,766.9
			z"/>
	</g>
	<g>
		<path class="st0" d="M84.5,766.9c-21.1,0-38.3-17.2-38.3-38.3v-350c0-21.1,17.2-38.3,38.3-38.3h75.8c10.2,0,18.5,8.3,18.5,18.5
			s-8.3,18.5-18.5,18.5H84.5c-0.7,0-1.2,0.6-1.2,1.2v350c0,0.7,0.6,1.2,1.2,1.2c10.2,0,18.5,8.3,18.5,18.5S94.7,766.9,84.5,766.9z"
			/>
	</g>
	<g>
		<path class="st0" d="M635.8,831.3H81.1c-41.8,0-75.8-34-75.8-75.8c0-14.1,11.5-25.7,25.7-25.7h655c14.1,0,25.7,11.5,25.7,25.7
			C711.6,797.2,677.6,831.3,635.8,831.3z M44.1,766.9c4.9,15.8,19.6,27.3,37,27.3h554.7c17.4,0,32.1-11.5,37-27.3H44.1z"/>
	</g>
	<g>
		<path class="st0" d="M409.2,400.4V273.7l-37.5,0.1c0,0-0.1,0-0.1,0c-10.3,0-20-4-27.3-11.3c-7.3-7.3-11.4-17-11.4-27.4V45.8
			c0-21.3,17.3-38.7,38.7-38.7h485.2c21.3,0,38.7,17.3,38.7,38.7v189.3c0,21.3-17.3,38.7-38.7,38.7H522.7L409.2,400.4z M446.3,236.5
			v67l59.8-66.8h350.7c0.9,0,1.6-0.7,1.6-1.6V45.8c0-0.9-0.7-1.6-1.6-1.6H371.7c-0.9,0-1.6,0.7-1.6,1.6v189.3c0,0.2,0,0.6,0.5,1.1
			c0.5,0.5,1,0.4,1.1,0.5L446.3,236.5z"/>
	</g>
</g>
</svg>
