<?xml version="1.0" encoding="utf-8"?>
<!-- Generator: Adobe Illustrator 25.2.1, SVG Export Plug-In . SVG Version: 6.00 Build 0)  -->
<svg version="1.1" id="Layer_1" xmlns="http://www.w3.org/2000/svg" xmlns:xlink="http://www.w3.org/1999/xlink" x="0px" y="0px"
	 viewBox="0 0 100 100" style="enable-background:new 0 0 100 100;" xml:space="preserve">
<style type="text/css">
	.st0{fill:#23315B;}
	.st1{fill-rule:evenodd;clip-rule:evenodd;fill:#23315B;}
</style>
<g>
	<path class="st0" d="M0.5,99.3L7.6,73c-4-7.2-6.1-15.3-6.1-23.5c0-26.8,21.8-48.6,48.6-48.6c26.8,0,48.6,21.8,48.6,48.6
		c0,26.8-21.8,48.6-48.6,48.6c-8,0-16-2-23.1-5.9L0.5,99.3z M28.3,82.4l1.7,1c6.1,3.6,13.1,5.6,20.1,5.6c21.7,0,39.4-17.7,39.4-39.4
		c0-21.7-17.7-39.4-39.4-39.4c-21.7,0-39.4,17.7-39.4,39.4c0,7.2,2,14.2,5.8,20.4l1,1.7l-3.9,14.7L28.3,82.4z"/>
	<path class="st1" d="M68.2,56.3c-2-1.2-4.6-2.5-7-1.6c-1.8,0.7-3,3.6-4.1,5c-0.6,0.7-1.3,0.9-2.2,0.5c-6.8-2.7-12-7.2-15.7-13.5
		c-0.6-1-0.5-1.7,0.2-2.6c1.1-1.3,2.6-2.8,2.9-4.6c0.3-1.8-0.5-3.9-1.3-5.5c-0.9-2-2-5-4.1-6.1c-1.9-1.1-4.4-0.5-6,0.9
		c-2.9,2.4-4.3,6-4.2,9.7c0,1,0.1,2.1,0.4,3.1c0.6,2.4,1.7,4.7,3,6.8c0.9,1.6,2,3.2,3.1,4.7c3.6,4.9,8.2,9.2,13.4,12.4
		c2.6,1.6,5.4,3,8.3,4c3.3,1.1,6.2,2.2,9.7,1.5c3.7-0.7,7.3-3,8.8-6.6c0.4-1.1,0.7-2.2,0.4-3.3C73.2,58.7,70.1,57.4,68.2,56.3z"/>
</g>
</svg>
